<?xml version="1.0" standalone="no"?>
<!DOCTYPE svg PUBLIC "-//W3C//DTD SVG 20010904//EN"
 "http://www.w3.org/TR/2001/REC-SVG-20010904/DTD/svg10.dtd">
<svg version="1.0" xmlns="http://www.w3.org/2000/svg"
 width="600.000000pt" height="600.000000pt" viewBox="0 0 600.000000 600.000000"
 preserveAspectRatio="xMidYMid meet">

<g transform="translate(0.000000,600.000000) scale(0.100000,-0.100000)"
fill="#000000" stroke="none">
<path d="M4430 5021 c-43 -17 -555 -352 -691 -452 -37 -27 -71 -49 -76 -49 -5
0 -21 38 -36 85 -49 148 -150 255 -299 317 -64 27 -87 31 -178 33 -152 3 -239
-27 -349 -120 -70 -60 -120 -130 -157 -225 -15 -39 -32 -70 -38 -70 -6 1 -29
7 -51 15 -88 32 -244 9 -355 -51 -61 -33 -158 -128 -193 -187 -46 -77 -66
-155 -68 -262 -2 -74 2 -114 15 -153 10 -29 16 -54 15 -56 -2 -1 -168 -19
-369 -40 -416 -42 -626 -70 -664 -87 -37 -17 -63 -64 -85 -151 -13 -53 -24
-76 -40 -84 -12 -6 -72 -14 -134 -18 -136 -8 -232 -24 -270 -43 -19 -9 -38
-34 -55 -71 -27 -57 -27 -58 -26 -282 1 -358 63 -682 151 -798 46 -61 65 -73
103 -68 19 3 64 8 100 12 36 3 110 12 165 20 55 7 107 14 115 14 9 0 28 -27
45 -63 38 -80 88 -135 128 -142 18 -3 108 3 201 15 93 11 171 18 174 15 6 -5
83 -212 263 -700 54 -148 115 -302 134 -342 45 -92 120 -161 221 -203 64 -26
85 -30 168 -30 80 0 107 4 160 26 90 36 181 121 230 214 l38 72 -4 131 c-4
108 -9 142 -27 187 -35 84 -45 111 -116 305 -64 173 -145 391 -160 428 -7 16
8 17 231 17 296 0 495 -28 785 -109 93 -27 499 -173 809 -293 58 -22 152 -57
210 -79 58 -21 155 -57 215 -80 205 -77 351 -58 458 61 61 68 83 130 101 296
33 299 30 591 -10 1124 -47 626 -204 1418 -342 1723 -39 86 -91 140 -169 179
-82 40 -201 49 -273 19z m230 -160 c37 -26 68 -76 89 -145 10 -34 31 -92 45
-131 14 -38 37 -113 50 -165 14 -52 36 -138 49 -190 37 -140 77 -354 133 -705
97 -605 115 -1308 43 -1644 -20 -97 -120 -177 -206 -166 -56 7 -70 12 -393
133 -628 235 -870 323 -972 350 -117 33 -294 72 -412 93 -60 10 -112 22 -116
26 -4 5 -24 48 -46 97 -21 49 -45 91 -52 93 -21 8 -62 -7 -87 -31 -23 -23 -23
-25 -9 -87 7 -35 13 -66 14 -69 0 -3 -80 -3 -177 -2 -235 5 -299 -1 -1038 -91
-62 -7 -166 453 -202 888 -16 200 -16 224 -1 357 9 78 22 144 27 146 6 2 9 8
5 13 -3 5 1 11 8 14 18 6 549 65 590 65 25 0 47 -12 92 -51 64 -54 129 -91
215 -120 42 -15 83 -19 181 -19 l127 0 12 -172 c14 -196 46 -465 61 -504 10
-25 13 -26 58 -19 26 4 51 9 56 12 4 3 5 31 2 62 -17 153 -38 432 -43 561 l-5
145 62 60 c52 50 72 80 119 177 51 107 59 119 91 130 92 30 362 190 687 406
528 351 735 485 771 498 47 18 138 10 172 -15z m-1358 -79 c115 -56 208 -184
216 -302 l4 -56 -108 -71 c-178 -116 -428 -251 -437 -235 -2 4 -12 32 -22 62
-31 97 -76 173 -141 240 l-63 66 10 40 c30 106 128 221 229 268 49 23 66 25
150 23 83 -3 103 -7 162 -35z m-682 -389 c71 -34 136 -101 179 -183 32 -59 35
-72 35 -155 1 -117 -24 -182 -102 -267 -192 -208 -514 -151 -636 112 -55 117
-26 286 65 393 69 81 158 127 269 139 47 6 135 -13 190 -39z m-1395 -975 c0
-459 55 -885 147 -1139 l24 -66 -86 -11 c-152 -21 -144 -24 -178 66 -37 95
-67 197 -82 277 -68 362 -91 649 -71 888 6 83 14 154 16 158 3 4 40 10 83 14
63 5 147 19 147 24 0 1 0 -95 0 -211z m-467 -112 c5 -6 -36 -10 -68 -8 -8 1
-44 -4 -80 -9 -36 -6 -75 -11 -87 -11 -13 0 -23 -6 -23 -12 0 -6 -4 -4 -10 4
-5 8 -7 16 -5 19 3 2 51 10 107 16 101 12 154 12 166 1z m62 -13 c0 -21 -3
-24 -9 -14 -5 8 -7 20 -4 28 8 21 13 15 13 -14z m-3 -125 c-2 -13 -4 -5 -4 17
-1 22 1 32 4 23 2 -10 2 -28 0 -40z m-301 -98 c3 -14 6 -32 6 -40 1 -8 4 -17
8 -20 4 -3 10 -59 14 -125 6 -103 5 -117 -7 -95 -7 14 -9 27 -4 29 5 2 4 7 -2
10 -6 4 -13 29 -16 57 -2 27 -9 73 -14 103 -6 29 -11 79 -10 110 1 50 2 53 10
26 5 -16 12 -41 15 -55z m74 -43 c0 -2 -10 -12 -22 -23 l-23 -19 19 23 c18 21
26 27 26 19z m-13 -299 c-3 -8 -6 -5 -6 6 -1 11 2 17 5 13 3 -3 4 -12 1 -19z
m13 -85 c0 -32 39 -205 55 -246 19 -46 19 -47 -1 -47 -20 0 -43 58 -60 150 -8
41 -18 93 -24 115 -5 22 -10 53 -10 69 l0 29 20 -26 c11 -14 20 -34 20 -44z
m267 -135 c-3 -8 -6 -5 -6 6 -1 11 2 17 5 13 3 -3 4 -12 1 -19z m1153 -404
c-6 -14 -11 -40 -11 -57 l-2 -32 -4 29 c-4 22 -7 26 -14 15 -7 -11 -9 -9 -9 9
0 14 -4 21 -11 17 -6 -4 -8 -13 -5 -21 3 -7 0 -16 -5 -20 -7 -4 -9 4 -7 22 3
29 2 29 -57 35 -57 5 -58 6 -15 8 25 1 63 6 85 10 65 14 66 14 55 -15z m264
14 c3 -7 7 -26 11 -43 6 -28 5 -28 -8 -11 -8 10 -19 16 -25 12 -8 -5 -12 0
-12 13 0 14 -5 19 -15 15 -8 -4 -13 -10 -10 -14 3 -5 1 -11 -5 -15 -5 -3 -10
-2 -10 4 0 6 -8 8 -17 5 -10 -3 0 6 22 20 44 29 64 32 69 14z m-455 -22 c-2
-2 -33 -6 -69 -9 -42 -4 -55 -3 -35 2 31 9 111 14 104 7z m-129 -37 c0 -6 -4
-7 -10 -4 -5 3 -10 11 -10 16 0 6 5 7 10 4 6 -3 10 -11 10 -16z m230 1 c0 -5
-2 -10 -4 -10 -3 0 -8 5 -11 10 -3 6 -1 10 4 10 6 0 11 -4 11 -10z m242 -32
c-9 -9 -12 -7 -12 12 0 19 3 21 12 12 9 -9 9 -15 0 -24z m-105 -156 c42 -52
101 -90 151 -98 23 -3 42 -10 42 -16 0 -5 6 -4 13 2 6 5 25 20 41 32 15 12 37
35 47 52 10 17 19 26 19 19 0 -6 3 -19 7 -29 4 -12 3 -15 -6 -10 -7 5 -27 -6
-49 -26 -31 -28 -37 -39 -35 -68 5 -56 0 -61 -47 -45 -22 8 -38 10 -35 5 3 -6
-3 -10 -14 -10 -26 0 -26 1 -1 30 11 13 20 30 19 39 0 10 -2 11 -6 4 -3 -9
-11 -6 -26 8 -12 11 -38 29 -57 40 -54 29 -64 40 -95 99 -41 79 -42 84 -37 99
2 7 12 -10 22 -38 9 -29 31 -69 47 -89z m233 118 c0 -11 -4 -20 -9 -20 -5 0
-7 9 -4 20 3 11 7 20 9 20 2 0 4 -9 4 -20z m-570 -25 c0 -5 -5 -3 -10 5 -5 8
-10 20 -10 25 0 6 5 3 10 -5 5 -8 10 -19 10 -25z m597 -12 c-3 -10 -5 -4 -5
12 0 17 2 24 5 18 2 -7 2 -21 0 -30z m-87 -9 c0 -2 -9 0 -20 6 -11 6 -20 13
-20 16 0 2 9 0 20 -6 11 -6 20 -13 20 -16z m55 -14 c7 -12 -2 -12 -30 0 -19 8
-19 9 2 9 12 1 25 -3 28 -9z m-491 -170 c5 -17 4 -20 -2 -10 -5 8 -13 26 -16
40 -5 17 -4 20 2 10 5 -8 13 -26 16 -40z m26 -65 c0 -5 -5 -3 -10 5 -5 8 -10
20 -10 25 0 6 5 3 10 -5 5 -8 10 -19 10 -25z m597 3 c-3 -7 -5 -2 -5 12 0 14
2 19 5 13 2 -7 2 -19 0 -25z m-258 -59 c-15 -29 -10 -82 12 -123 11 -21 15
-35 8 -31 -34 22 -54 172 -23 172 9 0 10 -5 3 -18z m294 -126 c-7 -2 -19 -2
-25 0 -7 3 -2 5 12 5 14 0 19 -2 13 -5z m-153 -123 c24 -13 61 -23 82 -24 21
0 38 -4 38 -8 0 -13 -52 -8 -100 10 -56 21 -69 30 -100 67 l-25 30 30 -26 c17
-15 50 -37 75 -49z m233 51 c3 -11 -1 -22 -7 -24 -8 -3 -12 3 -10 16 4 35 9
37 17 8z m-53 -44 c0 -2 -10 -12 -22 -23 l-23 -19 19 23 c18 21 26 27 26 19z
m107 -184 c-3 -10 -5 -2 -5 17 0 19 2 27 5 18 2 -10 2 -26 0 -35z m-548 -88
c0 -5 -8 6 -19 25 -11 19 -19 40 -19 45 0 6 8 -6 19 -25 11 -19 19 -39 19 -45z
m19 -40 c-3 -3 -9 2 -12 12 -6 14 -5 15 5 6 7 -7 10 -15 7 -18z m475 -15 c-15
-22 -32 -40 -36 -40 -5 0 6 18 23 40 41 52 50 52 13 0z m-63 -64 c0 -2 -7 -7
-16 -10 -8 -3 -12 -2 -9 4 6 10 25 14 25 6z m-93 -52 c-3 -3 -12 -4 -19 -1 -8
3 -5 6 6 6 11 1 17 -2 13 -5z m-90 -10 c-3 -3 -12 -4 -19 -1 -8 3 -5 6 6 6 11
1 17 -2 13 -5z"/>
<path d="M4504 4720 c-12 -4 -31 -20 -42 -35 -45 -57 -47 -76 -47 -535 1 -404
3 -453 28 -695 76 -710 188 -1277 293 -1487 24 -48 72 -91 110 -100 26 -7 34
-2 63 39 25 37 22 63 -14 103 -30 33 -37 49 -73 155 -45 133 -69 226 -91 355
-11 63 -25 130 -32 149 -11 30 -10 35 10 50 66 50 84 360 40 671 -16 112 -25
199 -24 221 1 10 -2 19 -6 19 -4 0 -10 18 -14 41 -4 22 -13 43 -20 46 -8 2
-28 32 -44 66 -17 34 -41 75 -53 90 -22 28 -23 36 -29 300 -5 249 0 336 16
261 4 -16 15 -49 25 -74 24 -57 26 -66 45 -174 9 -48 20 -96 25 -107 7 -12 7
-20 -1 -25 -16 -9 -3 -123 25 -234 11 -41 34 -82 39 -69 5 13 9 -31 12 -132 1
-37 6 -51 29 -73 37 -33 63 -33 110 2 36 26 37 28 31 80 -3 29 -9 72 -15 95
-5 23 -13 74 -19 112 -71 524 -207 897 -326 894 -16 0 -40 -4 -51 -9z m207
-838 c6 -34 8 -68 6 -75 -3 -6 -6 2 -6 20 -1 17 -5 33 -10 35 -5 2 -11 39 -14
83 -6 86 2 65 24 -63z"/>
<path d="M3159 4631 c-51 -50 -52 -86 -5 -135 44 -47 74 -47 126 0 57 52 51
110 -16 155 -42 27 -62 24 -105 -20z"/>
<path d="M2360 4132 c-52 -52 -52 -80 0 -132 22 -22 48 -40 58 -40 28 0 80 37
96 68 14 27 13 32 -5 69 -19 39 -40 55 -87 68 -18 5 -31 -2 -62 -33z"/>
<path d="M2261 1714 c0 -11 3 -14 6 -6 3 7 2 16 -1 19 -3 4 -6 -2 -5 -13z"/>
</g>
</svg>
